<svg xmlns="http://www.w3.org/2000/svg" width="14" height="10" viewBox="0 0 14 10" fill="none">
  <path d="M4.77307 10C4.65216 10 4.53881 9.98121 4.43301 9.94362C4.32721 9.90664 4.22897 9.8434 4.13829 9.75391L0.23895 5.90604C0.0726986 5.74198 -0.0067996 5.52931 0.000454992 5.26801C0.00831413 5.00731 0.0953689 4.79493 0.26162 4.63087C0.427871 4.46681 0.639463 4.38479 0.896397 4.38479C1.15333 4.38479 1.36492 4.46681 1.53117 4.63087L4.77307 7.82998L12.4584 0.246085C12.6247 0.0820284 12.8402 0 13.105 0C13.3692 0 13.5844 0.0820284 13.7506 0.246085C13.9169 0.410142 14 0.62252 14 0.883221C14 1.14452 13.9169 1.3572 13.7506 1.52125L5.40784 9.75391C5.31716 9.8434 5.21892 9.90664 5.11313 9.94362C5.00733 9.98121 4.89398 10 4.77307 10Z" fill="#DB2726"/>
</svg>
