<svg width="20" height="20" viewBox="4 0 17 17" fill="none" xmlns="http://www.w3.org/2000/svg">
  <path d="M11.0879 16.6108L15.1616 11.7521C15.4336 11.4276 15.5881 10.9803 15.5881 10.5155V1.754C15.5881 0.7893 14.9263 0 14.1174 0H7.49954C6.91118 0 6.3818 0.421049 6.14652 1.06124L3.74939 7.73534C3.1317 9.47185 4.19789 11.4013 5.77891 11.4013H9.93344L9.23494 15.4181C9.16131 15.8566 9.27158 16.3039 9.53639 16.6196C9.97021 17.1283 10.6614 17.1283 11.0879 16.6108ZM18.5293 0C17.7205 0 17.0587 0.7893 17.0587 1.754V8.77023C17.0587 9.73495 17.7205 10.5243 18.5293 10.5243C19.3382 10.5243 20 9.73495 20 8.77023V1.754C20 0.7893 19.3382 0 18.5293 0Z" fill="currentColor"/>
</svg>
