<svg width="24" height="24" viewBox="0 0 24 24" fill="none" xmlns="http://www.w3.org/2000/svg">
<g>
<path d="M12.0002 12.8999L9.9702 14.8999C9.5102 15.3599 9.1502 15.9299 9.0402 16.5699C8.7402 18.4099 10.1802 19.9999 12.0002 19.9999C13.8202 19.9999 15.2602 18.4099 14.9602 16.5799C14.8502 15.9399 14.5002 15.3599 14.0302 14.9099L12.0002 12.8999Z" fill="#B3B3B3"/>
<path d="M15.56 6.54987C14.38 8.01987 12 7.18987 12 5.29987V3.76987C12 2.96987 11.11 2.48987 10.45 2.92987C8.12 4.48987 4 7.96987 4 12.9999C4 15.9199 5.56 18.4699 7.89 19.8599C7.18 18.8399 6.83 17.5499 7.08 16.1799C7.27 15.1399 7.83 14.1999 8.59 13.4599L11.3 10.7899C11.69 10.4099 12.31 10.4099 12.7 10.7899L15.43 13.4799C16.17 14.2099 16.73 15.1299 16.91 16.1599C17.16 17.5199 16.84 18.7999 16.14 19.8199C18.03 18.6699 19.43 16.7599 19.85 14.5199C20.46 11.2499 19.04 8.14987 16.63 6.41987C16.3 6.16987 15.83 6.21987 15.56 6.54987Z" fill="#B3B3B3"/>
</g>
</svg>
