<svg width="23" height="21" viewBox="0 0 23 21" fill="none" xmlns="http://www.w3.org/2000/svg">
<g id="Group 316">
<path id="Vector" d="M11.2405 0C5.01808 0 0 4.01442 0 8.88798C0 12.0514 2.08752 14.8213 5.2188 16.403L4.15898 20.3613C4.139 20.4207 4.13593 20.4843 4.15011 20.5453C4.16429 20.6063 4.19516 20.6621 4.23927 20.7065C4.30359 20.7633 4.38635 20.7946 4.47211 20.7948C4.54322 20.7891 4.61068 20.761 4.6648 20.7146L9.22524 17.6395C9.89841 17.7324 10.577 17.7807 11.2566 17.784C17.4709 17.784 22.4971 13.7696 22.4971 8.88798C22.4971 4.00639 17.4549 0 11.2405 0Z" fill="#392020"/>
<path id="Vector_2" d="M3.93367 7.48338H2.70524C2.55299 7.48779 2.40261 7.4488 2.27168 7.37096C2.21355 7.33454 2.16357 7.28647 2.12489 7.22983C2.0862 7.17318 2.05964 7.10915 2.04687 7.04175C2.04297 6.99901 2.04297 6.95609 2.04687 6.91335C2.04306 6.8334 2.05858 6.75365 2.09212 6.68097C2.12567 6.60829 2.17624 6.54481 2.23956 6.49583C2.37954 6.39446 2.54849 6.34091 2.7213 6.34323H6.42263C6.5761 6.33784 6.7275 6.37992 6.8562 6.46369C6.9157 6.4985 6.96673 6.54613 7.00561 6.60306C7.04448 6.65998 7.07023 6.72481 7.08101 6.7929C7.08493 6.83295 7.08493 6.87331 7.08101 6.91335C7.08479 6.99446 7.06931 7.0753 7.03581 7.14926C7.00232 7.22323 6.95177 7.28815 6.88831 7.33881C6.75175 7.44006 6.58443 7.49115 6.4146 7.48338H5.22633V11.7066C5.23115 11.7966 5.21723 11.8865 5.18544 11.9708C5.15365 12.0551 5.10469 12.132 5.04166 12.1964C4.98122 12.2579 4.90857 12.3062 4.82836 12.338C4.74816 12.3698 4.66219 12.3844 4.57598 12.381C4.42519 12.3853 4.2776 12.3371 4.15848 12.2446C4.04506 12.1542 3.96809 12.0258 3.9417 11.8832C3.93376 11.8246 3.93376 11.7652 3.9417 11.7066L3.93367 7.48338Z" fill="#FEE500"/>
<path id="Vector_3" d="M7.43556 6.65557C7.47087 6.52344 7.55381 6.40903 7.6684 6.33439C7.7905 6.26518 7.92963 6.23179 8.06984 6.23805H8.37494C8.52372 6.23271 8.67105 6.26886 8.80047 6.34243C8.93762 6.43465 9.03507 6.57508 9.07346 6.73584L10.6792 11.2722C10.7209 11.3906 10.7557 11.5112 10.7836 11.6336C10.7864 11.6844 10.7864 11.7352 10.7836 11.7861C10.7863 11.8643 10.7719 11.9422 10.7414 12.0143C10.7109 12.0864 10.665 12.151 10.607 12.2036C10.5507 12.2612 10.4832 12.3067 10.4086 12.3371C10.334 12.3675 10.2539 12.3821 10.1734 12.3802C10.0496 12.3925 9.92521 12.3628 9.82034 12.2958C9.71547 12.2288 9.63621 12.1284 9.59534 12.0109L9.25812 11.0234H7.14652L6.8093 12.0109C6.76942 12.1308 6.6892 12.2331 6.58233 12.3004C6.47545 12.3678 6.34853 12.3959 6.22319 12.3802C6.08742 12.3838 5.95443 12.3413 5.84583 12.2597C5.74002 12.1756 5.66863 12.0557 5.64511 11.9226C5.64085 11.8772 5.64085 11.8315 5.64511 11.7861C5.63132 11.7064 5.63132 11.625 5.64511 11.5453C5.64511 11.4569 5.70131 11.3605 5.73342 11.2722L7.43556 6.65557ZM8.23845 7.7074L7.4757 10.1161H8.99317L8.23845 7.7074Z" fill="#FEE500"/>
<path id="Vector_4" d="M10.9675 6.91345C10.9593 6.73327 11.0228 6.5572 11.1441 6.4237C11.2058 6.36151 11.2798 6.3129 11.3614 6.28109C11.443 6.24929 11.5304 6.2349 11.6178 6.23895C11.7682 6.23719 11.915 6.28521 12.0353 6.37548C12.1469 6.46966 12.2209 6.60066 12.2441 6.74478C12.252 6.8007 12.252 6.85753 12.2441 6.91345V11.1367H14.452C14.6051 11.1347 14.7555 11.1764 14.8856 11.257C14.9441 11.2931 14.9943 11.3411 15.033 11.3978C15.0718 11.4545 15.0981 11.5187 15.1104 11.5862C15.1104 11.5862 15.1104 11.6666 15.1104 11.7067C15.1142 11.7867 15.0987 11.8663 15.0652 11.939C15.0316 12.0117 14.981 12.0752 14.9177 12.1242C14.7778 12.2256 14.6088 12.279 14.436 12.2767H11.7222C11.5494 12.2878 11.3776 12.2429 11.2324 12.1483C11.1026 12.0513 11.0161 11.9071 10.9916 11.7469C10.9857 11.6587 10.9857 11.5701 10.9916 11.4819L10.9675 6.91345Z" fill="#FEE500"/>
<path id="Vector_5" d="M15.2553 6.91288C15.2505 6.73322 15.3136 6.55836 15.4319 6.42313C15.5523 6.31378 15.7066 6.24921 15.869 6.24044C16.0313 6.23166 16.1917 6.27917 16.3231 6.37491C16.4371 6.46826 16.514 6.5992 16.5399 6.74421C16.5439 6.80034 16.5439 6.85675 16.5399 6.91288V8.87993L18.5712 6.53545C18.6495 6.45546 18.7326 6.38046 18.8201 6.31071C18.9026 6.2616 18.9972 6.2365 19.0931 6.23838C19.2335 6.23761 19.3707 6.27964 19.4865 6.35883C19.5411 6.39559 19.5877 6.44302 19.6236 6.4982C19.6595 6.55338 19.6839 6.6152 19.6953 6.68001C19.6985 6.6959 19.6985 6.71234 19.6953 6.72823C19.6914 6.74676 19.6914 6.76586 19.6953 6.78439C19.695 6.86888 19.6729 6.95189 19.6311 7.0253C19.5885 7.10302 19.5373 7.17565 19.4785 7.242L18.1457 8.70332L19.7515 11.1923V11.2725C19.8349 11.3876 19.8999 11.515 19.9442 11.65V11.6901C19.9535 11.7831 19.9401 11.877 19.9051 11.9637C19.8701 12.0504 19.8147 12.1273 19.7435 12.1878C19.6095 12.2891 19.4457 12.3428 19.2778 12.3404C19.1662 12.345 19.0555 12.32 18.9566 12.2681C18.8497 12.1964 18.7616 12.1 18.6997 11.9871L17.2063 9.57844L16.4917 10.3252V11.6659C16.4966 11.8456 16.4335 12.0205 16.3151 12.1557C16.2517 12.2177 16.1762 12.2661 16.0933 12.2979C16.0105 12.3297 15.922 12.3442 15.8334 12.3404C15.6852 12.3435 15.5406 12.2953 15.4239 12.2039C15.3105 12.1135 15.2335 11.9853 15.2071 11.8427C15.1992 11.784 15.1992 11.7246 15.2071 11.6659L15.2553 6.91288Z" fill="#FEE500"/>
</g>
</svg>
