<svg width="20" height="20" viewBox="0 1 17 17" fill="none" xmlns="http://www.w3.org/2000/svg">
  <path d="M8.91212 0.389186L4.83843 5.24789C4.56636 5.57239 4.41194 6.01967 4.41194 6.4845V15.246C4.41194 16.2107 5.07373 17 5.88258 17H12.5005C13.0888 17 13.6182 16.579 13.8535 15.9388L16.2506 9.26466C16.8683 7.52815 15.8021 5.5987 14.2211 5.5987H10.0666L10.7651 1.58194C10.8387 1.14343 10.7284 0.696144 10.4636 0.380416C10.0298 -0.128258 9.3386 -0.128258 8.91212 0.389186ZM1.47065 17C2.2795 17 2.94129 16.2107 2.94129 15.246V8.22977C2.94129 7.26505 2.2795 6.47573 1.47065 6.47573C0.661791 6.47573 0 7.26505 0 8.22977V15.246C0 16.2107 0.661791 17 1.47065 17Z" fill="#cccccc"/>
</svg>
