<svg width="210" height="210" viewBox="0 0 210 210" fill="none" xmlns="http://www.w3.org/2000/svg">
  <rect width="210" height="210" fill="#F2F2F2"/>
  <g transform="scale(0.25) translate(315 315)">
    <path d="M90 180C139.706 180 180 139.706 180 90C180 40.2944 139.706 -4.80506e-07 90 -1.07324e-06C40.2944 -1.66597e-06 1.66597e-06 40.2944 1.07324e-06 90L0 180L90 180Z" fill="#808080" fill-opacity="0.3"/>
    <path d="M210 135C210 93.5786 176.421 60 135 60C93.5787 60 60 93.5786 60 135L60 138.947C60 178.189 91.8114 210 131.053 210L210 210L210 135Z" fill="#808080" fill-opacity="0.7"/>
  </g>
</svg>
