<svg width="20" height="20" viewBox="0 0 20 20" fill="none" xmlns="http://www.w3.org/2000/svg">
<path id="Vector" d="M18.9684 3.15789H16.8421V1.03158C16.8421 0.463158 16.3789 0 15.8105 0H15.7789C15.2 0 14.7368 0.463158 14.7368 1.03158V3.15789H12.6211C12.0526 3.15789 11.5895 3.62105 11.5789 4.18947V4.22105C11.5789 4.8 12.0421 5.26316 12.6211 5.26316H14.7368V7.37895C14.7368 7.94737 15.2 8.42105 15.7789 8.41053H15.8105C16.3789 8.41053 16.8421 7.94737 16.8421 7.37895V5.26316H18.9684C19.5368 5.26316 20 4.8 20 4.23158V4.18947C20 3.62105 19.5368 3.15789 18.9684 3.15789ZM13.6842 7.37895V6.31579H12.6211C12.0632 6.31579 11.5368 6.09474 11.1368 5.70526C10.7474 5.30526 10.5263 4.77895 10.5263 4.18947C10.5263 3.81053 10.6316 3.46316 10.8105 3.15789H2.10526C0.947368 3.15789 0 4.10526 0 5.26316V17.8947C0 19.0526 0.947368 20 2.10526 20H14.7368C15.8947 20 16.8421 19.0526 16.8421 17.8947V9.17895C16.5263 9.35789 16.1684 9.47368 15.7684 9.47368C14.6211 9.46316 13.6842 8.52632 13.6842 7.37895ZM13.6421 17.8947H3.15789C2.72632 17.8947 2.47368 17.4 2.73684 17.0526L4.82105 14.2842C5.04211 13.9895 5.47368 14.0105 5.68421 14.3053L7.36842 16.8421L10.1158 13.1789C10.3263 12.9053 10.7368 12.8947 10.9474 13.1684L14.0526 17.0421C14.3263 17.3895 14.0842 17.8947 13.6421 17.8947Z" fill="#767676"/>
</svg>
